<svg width="3454" height="1226" viewBox="0 0 3454 1226" fill="none" xmlns="http://www.w3.org/2000/svg">
<path d="M2839.81 525.85C3084.31 388.95 3218.55 391.452 3454 525.85V314.444C3454 268.965 3321.92 211 3216.25 211H191.521C99.0623 211 -0.000732422 273.97 0 312.451V406.906C0 406.906 191.521 550.337 191.521 732.25C191.521 914.163 416.064 917.662 442.481 732.25C468.898 546.839 555.829 428.416 891.567 350.933L1228.38 518.853C1362.54 551.179 1437.68 550.6 1571.8 518.853C1695.6 490.163 1816.16 361.428 1888.8 350.933C1961.45 340.438 1992.34 333.094 2067.12 350.933C2256.42 412.825 2370.91 550.337 2417.14 641.294C2463.37 732.251 2595.45 711.261 2681.31 641.294C2767.16 571.327 2734.53 580.56 2839.81 525.85Z" fill="#99C8FF"/>
<path d="M614.191 560.423C369.687 316.745 235.45 321.199 0 560.423V184.127C0 103.177 132.084 0 237.752 0H3262.48C3354.94 0 3454 112.084 3454 180.58V348.707C3454 348.707 3262.48 604.01 3262.48 927.81C3262.48 1251.61 3037.94 1257.84 3011.52 927.81C2985.1 597.784 2898.17 386.993 2562.43 249.076L2225.62 547.969C2091.46 605.508 2016.32 604.478 1882.2 547.969C1758.4 496.902 1637.84 267.757 1565.2 249.076C1492.55 230.395 1461.66 217.324 1386.88 249.076C1197.58 359.242 1083.09 604.01 1036.86 765.91C990.631 927.81 858.547 890.449 772.692 765.91C686.838 641.371 719.474 657.806 614.191 560.423Z" fill="#66ABEE"/>
<circle cx="1298.5" cy="520.5" r="72.5" fill="#66ABEE"/>
<circle cx="520.5" cy="850.5" r="72.5" fill="#66ABEE"/>
<circle cx="1357.5" cy="382.5" r="39.5" fill="#66ABEE"/>
<circle cx="2966.5" cy="1186.5" r="39.5" fill="#66ABEE"/>
<circle cx="2043.5" cy="711.5" r="39.5" fill="#66ABEE"/>
<circle cx="1937.5" cy="659.5" r="39.5" fill="#66ABEE"/>
<circle cx="2004" cy="844" r="66" fill="#99C8FF"/>
<circle cx="3335.5" cy="896.5" r="39.5" fill="#99C8FF"/>
<circle cx="685.5" cy="896.5" r="39.5" fill="#99C8FF"/>
<rect width="3454" height="253" fill="#66ABEE"/>
</svg>
