<svg width="3455" height="1656" viewBox="0 0 3455 1656" fill="none" xmlns="http://www.w3.org/2000/svg">
<path d="M616.947 1328.87C388.522 1452.45 4 1389.57 4 1548.52C4 1595.77 135.816 1656 241.27 1656H3259.87C3352.14 1656 3451 1590.57 3451 1550.59V1452.45C3451 1452.45 3259.87 1303.43 3259.87 1114.42C3259.87 925.411 3018.04 905.231 3009.42 1114.42C3000.79 1323.61 2809.27 1510.61 2561.24 1510.61C2405.9 1510.61 2337.18 1456.24 2222.55 1350.33C2103.44 1240.29 1990.3 1252.51 1882.38 1336.14C1794.73 1404.06 1638.52 1499.7 1566.03 1510.61C1493.53 1521.51 1462.7 1529.14 1388.07 1510.61C1199.15 1446.3 1134.66 1417.58 1061.32 1328.87C987.984 1240.16 877.973 1160.81 774.074 1228.06C670.176 1295.31 722.016 1272.03 616.947 1328.87Z" fill="#99C8FF"/>
<path d="M2854.31 406.046C3058.42 261.717 3402 335.153 3402 149.521C3402 94.3366 3284.22 24 3189.99 24H492.783C410.336 24 321.999 100.409 322 147.104V261.717C322 261.717 492.783 435.76 492.783 656.497C492.783 877.235 708.863 900.802 716.569 656.497C724.275 412.192 895.404 193.798 1117.03 193.798C1255.83 193.798 1317.23 257.291 1419.66 380.985C1526.08 509.499 1627.18 495.22 1723.61 397.556C1801.93 318.228 1941.5 206.533 2006.28 193.798C2071.06 181.063 2098.61 172.152 2165.29 193.798C2334.09 268.899 2391.72 302.448 2457.25 406.046C2522.78 509.643 2621.08 602.315 2713.91 523.779C2806.75 445.242 2760.43 472.433 2854.31 406.046Z" fill="#99C8FF"/>
<g filter="url(#filter0_d_437_39)">
<path d="M2838.05 1249.34C3066.48 1372.75 3451 1309.96 3451 1468.68C3451 1515.86 3319.18 1576 3213.73 1576H195.133C102.861 1576 3.99927 1510.67 4 1470.74V1372.75C4 1372.75 195.133 1223.94 195.133 1035.2C195.133 846.469 436.96 826.318 445.584 1035.2C454.209 1244.09 645.729 1430.82 893.76 1430.82C1049.1 1430.82 1117.82 1376.53 1232.45 1270.77C1351.56 1160.89 1464.7 1173.1 1572.62 1256.6C1660.27 1324.43 1816.48 1419.93 1888.97 1430.82C1961.47 1441.71 1992.3 1449.33 2066.93 1430.82C2255.85 1366.61 2320.34 1337.92 2393.68 1249.34C2467.02 1160.77 2577.03 1081.53 2680.93 1148.68C2784.82 1215.83 2732.98 1192.58 2838.05 1249.34Z" fill="#66ABEE"/>
</g>
<g filter="url(#filter1_d_437_39)">
<path d="M615.862 394.643C372.285 223.048 238.557 226.184 4 394.643V129.66C4 72.6559 135.583 0 240.85 0H3254.1C3346.21 0 3444.9 78.9286 3444.9 127.163L3451 239.482C3254.1 239.482 3117.84 431.704 3260.21 647.28C3402.58 862.855 3064.47 1038.33 3038.16 805.932C3011.84 573.532 2925.24 449.39 2590.78 352.27C2436.86 323.113 2356.31 330.86 2221.18 385.873C2087.53 426.392 2012.67 425.666 1879.06 385.873C1755.73 349.912 1635.63 304.689 1563.26 291.534C1490.89 278.379 1460.12 269.175 1385.62 291.534C1227.83 350.775 1125.95 399.759 1036.93 539.345C947.905 678.932 859.291 627.044 773.762 539.345C688.233 451.646 720.745 463.22 615.862 394.643Z" fill="#66ABEE"/>
</g>
<ellipse cx="1171.5" cy="666" rx="67.5" ry="67" fill="#66ABEE"/>
<ellipse cx="3384" cy="360.5" rx="67" ry="67.5" fill="#66ABEE"/>
<circle cx="108" cy="495" r="67" fill="#66ABEE"/>
<ellipse cx="1226.5" cy="538" rx="36.5" ry="37" fill="#66ABEE"/>
<ellipse cx="1911" cy="574.5" rx="37" ry="36.5" fill="#66ABEE"/>
<ellipse cx="1813" cy="525.5" rx="37" ry="36.5" fill="#66ABEE"/>
<circle cx="1874" cy="697" r="61" fill="#99C8FF"/>
<ellipse cx="2900.5" cy="1137" rx="36.5" ry="37" fill="#99C8FF"/>
<circle cx="282" cy="106" r="3" fill="#99C8FF"/>
<ellipse cx="3280.5" cy="483" rx="36.5" ry="37" fill="#99C8FF"/>
<ellipse cx="260.5" cy="538" rx="36.5" ry="37" fill="#99C8FF"/>
<rect x="4" y="1456" width="3447" height="200" fill="#66ABEE"/>
<rect x="4" width="3447" height="235" fill="#66ABEE"/>
<defs>
<filter id="filter0_d_437_39" x="0" y="880" width="3455" height="698" filterUnits="userSpaceOnUse" color-interpolation-filters="sRGB">
<feFlood flood-opacity="0" result="BackgroundImageFix"/>
<feColorMatrix in="SourceAlpha" type="matrix" values="0 0 0 0 0 0 0 0 0 0 0 0 0 0 0 0 0 0 127 0" result="hardAlpha"/>
<feOffset dy="-2"/>
<feGaussianBlur stdDeviation="2"/>
<feComposite in2="hardAlpha" operator="out"/>
<feColorMatrix type="matrix" values="0 0 0 0 0 0 0 0 0 0 0 0 0 0 0 0 0 0 0.25 0"/>
<feBlend mode="normal" in2="BackgroundImageFix" result="effect1_dropShadow_437_39"/>
<feBlend mode="normal" in="SourceGraphic" in2="effect1_dropShadow_437_39" result="shape"/>
</filter>
<filter id="filter1_d_437_39" x="0" y="0" width="3455" height="925" filterUnits="userSpaceOnUse" color-interpolation-filters="sRGB">
<feFlood flood-opacity="0" result="BackgroundImageFix"/>
<feColorMatrix in="SourceAlpha" type="matrix" values="0 0 0 0 0 0 0 0 0 0 0 0 0 0 0 0 0 0 127 0" result="hardAlpha"/>
<feOffset dy="5"/>
<feGaussianBlur stdDeviation="2"/>
<feComposite in2="hardAlpha" operator="out"/>
<feColorMatrix type="matrix" values="0 0 0 0 0 0 0 0 0 0 0 0 0 0 0 0 0 0 0.25 0"/>
<feBlend mode="normal" in2="BackgroundImageFix" result="effect1_dropShadow_437_39"/>
<feBlend mode="normal" in="SourceGraphic" in2="effect1_dropShadow_437_39" result="shape"/>
</filter>
</defs>
</svg>
